<svg width="32" height="32" viewBox="0 0 32 32" fill="none" xmlns="http://www.w3.org/2000/svg">
<path d="M12 14.6666C13.4728 14.6666 14.6667 13.4727 14.6667 11.9999C14.6667 10.5272 13.4728 9.33325 12 9.33325C10.5272 9.33325 9.33333 10.5272 9.33333 11.9999C9.33333 13.4727 10.5272 14.6666 12 14.6666Z" stroke="#4A4B4C" stroke-width="1.5"/>
<path d="M17.3333 19.9999C17.3333 21.4733 17.3333 22.6666 12 22.6666C6.66667 22.6666 6.66667 21.4733 6.66667 19.9999C6.66667 18.5266 9.05333 17.3333 12 17.3333C14.9467 17.3333 17.3333 18.5266 17.3333 19.9999Z" stroke="#4A4B4C" stroke-width="1.5"/>
<path d="M2.66667 15.9999C2.66667 10.9719 2.66667 8.45725 4.22933 6.89592C5.79067 5.33325 8.30533 5.33325 13.3333 5.33325H18.6667C23.6947 5.33325 26.2093 5.33325 27.7707 6.89592C29.3333 8.45725 29.3333 10.9719 29.3333 15.9999C29.3333 21.0279 29.3333 23.5426 27.7707 25.1039C26.2093 26.6666 23.6947 26.6666 18.6667 26.6666H13.3333C8.30533 26.6666 5.79067 26.6666 4.22933 25.1039C2.66667 23.5426 2.66667 21.0279 2.66667 15.9999Z" stroke="#4A4B4C" stroke-width="1.5"/>
<path d="M25.3333 16H20M25.3333 12H18.6667M25.3333 20H21.3333" stroke="#4A4B4C" stroke-width="1.5" stroke-linecap="round"/>
</svg>
