<svg width="20" height="20" viewBox="0 0 20 20" fill="none" xmlns="http://www.w3.org/2000/svg">
<g id="fluent-mdl2:navigate-back">
<path id="Vector" d="M9.375 0C10.2409 0 11.071 0.110677 11.8652 0.332031C12.6595 0.553385 13.4082 0.865885 14.1113 1.26953C14.8145 1.67318 15.446 2.16146 16.0059 2.73438C16.5658 3.30729 17.054 3.94206 17.4707 4.63867C17.8874 5.33529 18.2031 6.08073 18.418 6.875C18.6328 7.66927 18.7435 8.5026 18.75 9.375C18.75 10.2409 18.6393 11.071 18.418 11.8652C18.1966 12.6595 17.8841 13.4082 17.4805 14.1113C17.0768 14.8145 16.5885 15.446 16.0156 16.0059C15.4427 16.5658 14.8079 17.054 14.1113 17.4707C13.4147 17.8874 12.6693 18.2031 11.875 18.418C11.0807 18.6328 10.2474 18.7435 9.375 18.75C8.50911 18.75 7.67904 18.6393 6.88477 18.418C6.09049 18.1966 5.3418 17.8841 4.63867 17.4805C3.93555 17.0768 3.30404 16.5885 2.74414 16.0156C2.18424 15.4427 1.69596 14.8079 1.2793 14.1113C0.86263 13.4147 0.546875 12.6693 0.332031 11.875C0.117188 11.0807 0.00651042 10.2474 0 9.375C0 8.50911 0.110677 7.67904 0.332031 6.88477C0.553385 6.09049 0.865885 5.3418 1.26953 4.63867C1.67318 3.93555 2.16146 3.30404 2.73438 2.74414C3.30729 2.18424 3.94206 1.69596 4.63867 1.2793C5.33529 0.86263 6.08073 0.546875 6.875 0.332031C7.66927 0.117188 8.5026 0.00651042 9.375 0ZM9.375 17.5C10.1237 17.5 10.8431 17.4023 11.5332 17.207C12.2233 17.0117 12.8678 16.7383 13.4668 16.3867C14.0658 16.0352 14.6159 15.612 15.1172 15.1172C15.6185 14.6224 16.0417 14.0755 16.3867 13.4766C16.7318 12.8776 17.0052 12.2298 17.207 11.5332C17.4089 10.8366 17.5065 10.1172 17.5 9.375C17.5 8.6263 17.4023 7.9069 17.207 7.2168C17.0117 6.52669 16.7383 5.88216 16.3867 5.2832C16.0352 4.68424 15.612 4.13411 15.1172 3.63281C14.6224 3.13151 14.0755 2.70833 13.4766 2.36328C12.8776 2.01823 12.2298 1.74479 11.5332 1.54297C10.8366 1.34115 10.1172 1.24349 9.375 1.25C8.6263 1.25 7.9069 1.34766 7.2168 1.54297C6.52669 1.73828 5.88216 2.01172 5.2832 2.36328C4.68424 2.71484 4.13411 3.13802 3.63281 3.63281C3.13151 4.1276 2.70833 4.67448 2.36328 5.27344C2.01823 5.8724 1.74479 6.52018 1.54297 7.2168C1.34115 7.91341 1.24349 8.63281 1.25 9.375C1.25 10.1237 1.34766 10.8431 1.54297 11.5332C1.73828 12.2233 2.01172 12.8678 2.36328 13.4668C2.71484 14.0658 3.13802 14.6159 3.63281 15.1172C4.1276 15.6185 4.67448 16.0417 5.27344 16.3867C5.8724 16.7318 6.52018 17.0052 7.2168 17.207C7.91341 17.4089 8.63281 17.5065 9.375 17.5ZM7.09961 8.75H13.75V10H7.09961L9.81445 12.6758L8.93555 13.5742L4.69727 9.375L8.93555 5.17578L9.81445 6.07422L7.09961 8.75Z" fill="white"/>
</g>
</svg>
