<svg width="21" height="21" viewBox="0 0 21 21" fill="none" xmlns="http://www.w3.org/2000/svg">
<path d="M9.84375 0C10.7529 0 11.6245 0.116211 12.4585 0.348633C13.2925 0.581055 14.0786 0.90918 14.8169 1.33301C15.5552 1.75684 16.2183 2.26953 16.8062 2.87109C17.394 3.47266 17.9067 4.13916 18.3442 4.87061C18.7817 5.60205 19.1133 6.38477 19.3389 7.21875C19.5645 8.05273 19.6807 8.92773 19.6875 9.84375C19.6875 10.7529 19.5713 11.6245 19.3389 12.4585C19.1064 13.2925 18.7783 14.0786 18.3545 14.8169C17.9307 15.5552 17.418 16.2183 16.8164 16.8062C16.2148 17.394 15.5483 17.9067 14.8169 18.3442C14.0854 18.7817 13.3027 19.1133 12.4688 19.3389C11.6348 19.5645 10.7598 19.6807 9.84375 19.6875C8.93457 19.6875 8.06299 19.5713 7.229 19.3389C6.39502 19.1064 5.60889 18.7783 4.87061 18.3545C4.13232 17.9307 3.46924 17.418 2.88135 16.8164C2.29346 16.2148 1.78076 15.5483 1.34326 14.8169C0.905762 14.0854 0.574219 13.3027 0.348633 12.4688C0.123047 11.6348 0.00683594 10.7598 0 9.84375C0 8.93457 0.116211 8.06299 0.348633 7.229C0.581055 6.39502 0.90918 5.60889 1.33301 4.87061C1.75684 4.13232 2.26953 3.46924 2.87109 2.88135C3.47266 2.29346 4.13916 1.78076 4.87061 1.34326C5.60205 0.905762 6.38477 0.574219 7.21875 0.348633C8.05273 0.123047 8.92773 0.00683594 9.84375 0ZM9.84375 18.375C10.6299 18.375 11.3853 18.2725 12.1099 18.0674C12.8345 17.8623 13.5112 17.5752 14.1401 17.2061C14.769 16.8369 15.3467 16.3926 15.873 15.873C16.3994 15.3535 16.8438 14.7793 17.2061 14.1504C17.5684 13.5215 17.8555 12.8413 18.0674 12.1099C18.2793 11.3784 18.3818 10.623 18.375 9.84375C18.375 9.05762 18.2725 8.30225 18.0674 7.57764C17.8623 6.85303 17.5752 6.17627 17.2061 5.54736C16.8369 4.91846 16.3926 4.34082 15.873 3.81445C15.3535 3.28809 14.7793 2.84375 14.1504 2.48145C13.5215 2.11914 12.8413 1.83203 12.1099 1.62012C11.3784 1.4082 10.623 1.30566 9.84375 1.3125C9.05762 1.3125 8.30225 1.41504 7.57764 1.62012C6.85303 1.8252 6.17627 2.1123 5.54736 2.48145C4.91846 2.85059 4.34082 3.29492 3.81445 3.81445C3.28809 4.33398 2.84375 4.9082 2.48145 5.53711C2.11914 6.16602 1.83203 6.84619 1.62012 7.57764C1.4082 8.30908 1.30566 9.06445 1.3125 9.84375C1.3125 10.6299 1.41504 11.3853 1.62012 12.1099C1.8252 12.8345 2.1123 13.5112 2.48145 14.1401C2.85059 14.769 3.29492 15.3467 3.81445 15.873C4.33398 16.3994 4.9082 16.8438 5.53711 17.2061C6.16602 17.5684 6.84619 17.8555 7.57764 18.0674C8.30908 18.2793 9.06445 18.3818 9.84375 18.375ZM7.45459 9.1875H14.4375V10.5H7.45459L10.3052 13.3096L9.38232 14.2529L4.93213 9.84375L9.38232 5.43457L10.3052 6.37793L7.45459 9.1875Z" fill="black"/>
</svg>
