<svg width="27" height="27" viewBox="0 0 27 27" fill="none" xmlns="http://www.w3.org/2000/svg">
<g id="solar:download-line-duotone">
<g id="Group">
<path id="Vector" opacity="0.5" d="M19.125 10.2521C21.5719 10.2651 22.8971 10.3702 23.7611 11.2022C24.75 12.1544 24.75 13.6862 24.75 16.7499V17.8332C24.75 20.898 24.75 22.4298 23.7611 23.3821C22.7734 24.3332 21.1815 24.3332 18 24.3332H9C5.8185 24.3332 4.22663 24.3332 3.23888 23.3821C2.25 22.4287 2.25 20.898 2.25 17.8332V16.7499C2.25 13.6862 2.25 12.1544 3.23888 11.2022C4.10288 10.3702 5.42813 10.2651 7.875 10.2521" stroke="black" stroke-width="1.5" stroke-linecap="round"/>
<path id="Vector_2" d="M13.5 2.66663V16.75M13.5 16.75L10.125 12.9583M13.5 16.75L16.875 12.9583" stroke="black" stroke-width="1.5" stroke-linecap="round" stroke-linejoin="round"/>
</g>
</g>
</svg>
