<svg width="24" height="24" viewBox="0 0 24 24" fill="none" xmlns="http://www.w3.org/2000/svg">
<path d="M4.0915 14.7816C3.14206 14.7816 2.3707 15.5577 2.3707 16.5115C2.36994 16.9688 2.55074 17.4077 2.8734 17.7318C3.19606 18.0559 3.63418 18.2387 4.0915 18.24C4.54925 18.2391 4.98791 18.0565 5.31104 17.7322C5.63418 17.408 5.81534 16.9688 5.8147 16.511C5.81521 16.0533 5.63402 15.614 5.31093 15.2898C4.98784 14.9655 4.54925 14.7827 4.0915 14.7816ZM4.0915 17.4029C3.86269 17.4021 3.64355 17.3105 3.48225 17.1482C3.32095 16.9859 3.2307 16.7662 3.23134 16.5374C3.23121 16.3088 3.32166 16.0895 3.48287 15.9275C3.64409 15.7655 3.86294 15.6739 4.0915 15.6729C4.32048 15.6733 4.53995 15.7646 4.70168 15.9267C4.86341 16.0888 4.95419 16.3084 4.95406 16.5374C4.95438 16.6509 4.9323 16.7634 4.8891 16.8683C4.8459 16.9733 4.78242 17.0687 4.7023 17.1491C4.62218 17.2294 4.52699 17.2932 4.42218 17.3368C4.31737 17.3803 4.205 17.4028 4.0915 17.4029ZM19.2321 14.7816C18.2813 14.7816 17.5104 15.5577 17.5104 16.5115C17.5095 16.9691 17.6904 17.4083 18.0133 17.7325C18.3361 18.0567 18.7746 18.2394 19.2321 18.2405C20.1825 18.2405 20.9553 17.4662 20.9553 16.5115C20.9559 16.0537 20.7747 15.6144 20.4516 15.2901C20.1285 14.9657 19.6899 14.7828 19.2321 14.7816ZM19.2321 17.4029C19.0032 17.4021 18.784 17.3105 18.6226 17.1483C18.4611 16.986 18.3706 16.7663 18.371 16.5374C18.371 16.3087 18.4616 16.0893 18.623 15.9273C18.7844 15.7653 19.0035 15.6738 19.2321 15.6729C19.7083 15.6729 20.0947 16.0613 20.0947 16.5374C20.0949 16.6509 20.0727 16.7633 20.0295 16.8682C19.9862 16.9731 19.9228 17.0684 19.8427 17.1488C19.7626 17.2291 19.6674 17.2929 19.5627 17.3365C19.4579 17.3801 19.3456 17.4027 19.2321 17.4029ZM23.0433 6.71997H7.90126C7.77463 6.72035 7.65333 6.77096 7.56397 6.86067C7.47461 6.95039 7.42449 7.0719 7.42462 7.19853V11.5387H6.47086V8.87421C6.47099 8.81145 6.45874 8.74928 6.43483 8.69126C6.41091 8.63323 6.3758 8.58049 6.33148 8.53605C6.28717 8.4916 6.23454 8.45633 6.17659 8.43224C6.11863 8.40815 6.0565 8.39571 5.99374 8.39565H2.7451C2.1787 8.39565 1.67278 8.81421 1.58206 9.41325V9.38205L1.07518 12.2558L1.07614 12.2659C0.909112 12.2946 0.757622 12.3814 0.648507 12.5111C0.539391 12.6408 0.479691 12.8049 0.479982 12.9744L0.495822 13.128L0.479982 13.1237L1.19518 16.3565H1.94014V16.3272C1.94014 15.1685 2.88814 14.2301 4.05694 14.2301C5.22478 14.2301 6.17326 15.1685 6.17326 16.3272V16.3565H17.0817V16.3272C17.0817 15.1685 18.0302 14.2301 19.1971 14.2301C20.3659 14.2301 21.3144 15.1685 21.3144 16.3272L21.3125 16.3565H23.52V7.19853C23.5201 7.13581 23.5079 7.07368 23.484 7.01569C23.4601 6.95769 23.425 6.90497 23.3808 6.86053C23.3365 6.8161 23.2839 6.78081 23.226 6.75669C23.1681 6.73257 23.1061 6.7201 23.0433 6.71997ZM4.80142 9.17325V11.5387H1.94062L2.29822 9.53181C2.32798 9.29181 2.53678 9.11469 2.7451 9.11469H4.80142V9.17325Z" fill="#4A4B4C"/>
</svg>
