<svg width="24" height="24" viewBox="0 0 24 24" fill="none" xmlns="http://www.w3.org/2000/svg">
<path d="M2.25 5.75C2.25 5.35218 2.40804 4.97064 2.68934 4.68934C2.97064 4.40804 3.35218 4.25 3.75 4.25H8.109C8.52585 4.24999 8.93229 4.38022 9.2715 4.6225L11.7285 6.3775C12.0677 6.61978 12.4741 6.75001 12.891 6.75H20.25C20.6478 6.75 21.0294 6.90804 21.3107 7.18934C21.592 7.47064 21.75 7.85218 21.75 8.25V18.25C21.75 18.6478 21.592 19.0294 21.3107 19.3107C21.0294 19.592 20.6478 19.75 20.25 19.75H3.75C3.35218 19.75 2.97064 19.592 2.68934 19.3107C2.40804 19.0294 2.25 18.6478 2.25 18.25V5.75Z" stroke="#4A4B4C" stroke-linecap="round" stroke-linejoin="round"/>
<path d="M6.20544 16.0936V10.1001L9.20544 16.1001L12.2054 10.1091V16.1001M13.8194 10.1001H17.7944M15.8069 16.1001V10.1001" stroke="#4A4B4C" stroke-linecap="round" stroke-linejoin="round"/>
</svg>
