<svg width="27" height="27" viewBox="0 0 27 27" fill="none" xmlns="http://www.w3.org/2000/svg">
<g id="teenyicons:pdf-outline">
<path id="Vector" d="M4.50005 11.7V10.8H3.60005V11.7H4.50005ZM11.7 11.7V10.8H10.8V11.7H11.7ZM11.7 18.9H10.8V19.8H11.7V18.9ZM24.3 6.3H25.2001V5.9274L24.9373 5.6628L24.3 6.3ZM18.9 0.9L19.5373 0.2628L19.2726 0H18.9V0.9ZM4.50005 12.6H6.30005V10.8H4.50005V12.6ZM5.40005 19.8V15.3H3.60005V19.8H5.40005ZM5.40005 15.3V11.7H3.60005V15.3H5.40005ZM6.30005 14.4H4.50005V16.2H6.30005V14.4ZM7.20005 13.5C7.20005 13.7387 7.10523 13.9676 6.93644 14.1364C6.76766 14.3052 6.53874 14.4 6.30005 14.4V16.2C7.01613 16.2 7.70289 15.9155 8.20924 15.4092C8.71559 14.9028 9.00005 14.2161 9.00005 13.5H7.20005ZM6.30005 12.6C6.53874 12.6 6.76766 12.6948 6.93644 12.8636C7.10523 13.0324 7.20005 13.2613 7.20005 13.5H9.00005C9.00005 12.7839 8.71559 12.0972 8.20924 11.5908C7.70289 11.0845 7.01613 10.8 6.30005 10.8V12.6ZM10.8 11.7V18.9H12.6V11.7H10.8ZM11.7 19.8H13.5V18H11.7V19.8ZM16.2 17.1V13.5H14.4V17.1H16.2ZM13.5 10.8H11.7V12.6H13.5V10.8ZM16.2 13.5C16.2 12.7839 15.9156 12.0972 15.4092 11.5908C14.9029 11.0845 14.2161 10.8 13.5 10.8V12.6C13.7387 12.6 13.9677 12.6948 14.1364 12.8636C14.3052 13.0324 14.4 13.2613 14.4 13.5H16.2ZM13.5 19.8C14.2161 19.8 14.9029 19.5155 15.4092 19.0092C15.9156 18.5028 16.2 17.8161 16.2 17.1H14.4C14.4 17.3387 14.3052 17.5676 14.1364 17.7364C13.9677 17.9052 13.7387 18 13.5 18V19.8ZM18 10.8V19.8H19.8V10.8H18ZM18.9 12.6H23.4V10.8H18.9V12.6ZM18.9 16.2H21.6V14.4H18.9V16.2ZM3.60005 9V2.7H1.80005V9H3.60005ZM23.4 6.3V9H25.2001V6.3H23.4ZM4.50005 1.8H18.9V0H4.50005V1.8ZM18.2628 1.5372L23.6628 6.9372L24.9373 5.6628L19.5373 0.2628L18.2628 1.5372ZM3.60005 2.7C3.60005 2.46131 3.69487 2.23239 3.86365 2.0636C4.03244 1.89482 4.26135 1.8 4.50005 1.8V0C3.78396 0 3.09721 0.284463 2.59086 0.790812C2.08451 1.29716 1.80005 1.98392 1.80005 2.7H3.60005ZM1.80005 21.6V24.3H3.60005V21.6H1.80005ZM4.50005 27H22.5V25.2H4.50005V27ZM25.2001 24.3V21.6H23.4V24.3H25.2001ZM22.5 27C23.2161 27 23.9029 26.7155 24.4092 26.2092C24.9156 25.7028 25.2001 25.0161 25.2001 24.3H23.4C23.4 24.5387 23.3052 24.7676 23.1364 24.9364C22.9677 25.1052 22.7387 25.2 22.5 25.2V27ZM1.80005 24.3C1.80005 25.0161 2.08451 25.7028 2.59086 26.2092C3.09721 26.7155 3.78396 27 4.50005 27V25.2C4.26135 25.2 4.03244 25.1052 3.86365 24.9364C3.69487 24.7676 3.60005 24.5387 3.60005 24.3H1.80005Z" fill="black"/>
</g>
</svg>
