<svg width="24" height="24" viewBox="0 0 24 24" fill="none" xmlns="http://www.w3.org/2000/svg">
<g clip-path="url(#clip0_0_25)">
<path d="M24 18.4336V24H18V21H15V18H12V15.5742C11.4219 15.8789 10.8164 16.1094 10.1836 16.2656C9.55078 16.4219 8.90625 16.5 8.25 16.5C7.49219 16.5 6.76172 16.4023 6.05859 16.207C5.35547 16.0117 4.69922 15.7344 4.08984 15.375C3.48047 15.0156 2.92578 14.5859 2.42578 14.0859C1.92578 13.5859 1.49219 13.0273 1.125 12.4102C0.757812 11.793 0.480469 11.1367 0.292969 10.4414C0.105469 9.74609 0.0078125 9.01562 0 8.25C0 7.49219 0.0976563 6.76172 0.292969 6.05859C0.488281 5.35547 0.765625 4.69922 1.125 4.08984C1.48438 3.48047 1.91406 2.92578 2.41406 2.42578C2.91406 1.92578 3.47266 1.49219 4.08984 1.125C4.70703 0.757812 5.36328 0.480469 6.05859 0.292969C6.75391 0.105469 7.48438 0.0078125 8.25 0C9.00781 0 9.73828 0.0976563 10.4414 0.292969C11.1445 0.488281 11.8008 0.765625 12.4102 1.125C13.0195 1.48438 13.5742 1.91406 14.0742 2.41406C14.5742 2.91406 15.0078 3.47266 15.375 4.08984C15.7422 4.70703 16.0195 5.36328 16.207 6.05859C16.3945 6.75391 16.4922 7.48438 16.5 8.25C16.5 8.64844 16.4688 9.04297 16.4062 9.43359C16.3438 9.82422 16.2539 10.207 16.1367 10.582L24 18.4336ZM22.5 19.0664L14.4141 10.9805C14.5859 10.5352 14.7266 10.0898 14.8359 9.64453C14.9453 9.19922 15 8.73438 15 8.25C15 7.32031 14.8242 6.44531 14.4727 5.625C14.1211 4.80469 13.6367 4.08984 13.0195 3.48047C12.4023 2.87109 11.6875 2.39062 10.875 2.03906C10.0625 1.6875 9.1875 1.50781 8.25 1.5C7.32031 1.5 6.44531 1.67578 5.625 2.02734C4.80469 2.37891 4.08984 2.86328 3.48047 3.48047C2.87109 4.09766 2.39062 4.8125 2.03906 5.625C1.6875 6.4375 1.50781 7.3125 1.5 8.25C1.5 9.17969 1.67578 10.0547 2.02734 10.875C2.37891 11.6953 2.86328 12.4102 3.48047 13.0195C4.09766 13.6289 4.8125 14.1094 5.625 14.4609C6.4375 14.8125 7.3125 14.9922 8.25 15C9.00781 15 9.75 14.8711 10.4766 14.6133C11.2031 14.3555 11.8633 13.9844 12.457 13.5H13.5V16.5H16.5V19.5H19.5V22.5H22.5V19.0664ZM6 4.5C6.21094 4.5 6.40625 4.53906 6.58594 4.61719C6.76562 4.69531 6.92188 4.80078 7.05469 4.93359C7.1875 5.06641 7.29688 5.22656 7.38281 5.41406C7.46875 5.60156 7.50781 5.79688 7.5 6C7.5 6.21094 7.46094 6.40625 7.38281 6.58594C7.30469 6.76562 7.19922 6.92188 7.06641 7.05469C6.93359 7.1875 6.77344 7.29688 6.58594 7.38281C6.39844 7.46875 6.20312 7.50781 6 7.5C5.78906 7.5 5.59375 7.46094 5.41406 7.38281C5.23438 7.30469 5.07812 7.19922 4.94531 7.06641C4.8125 6.93359 4.70312 6.77344 4.61719 6.58594C4.53125 6.39844 4.49219 6.20312 4.5 6C4.5 5.78906 4.53906 5.59375 4.61719 5.41406C4.69531 5.23438 4.80078 5.07812 4.93359 4.94531C5.06641 4.8125 5.22656 4.70312 5.41406 4.61719C5.60156 4.53125 5.79688 4.49219 6 4.5Z" fill="black"/>
</g>
<defs>
<clipPath id="clip0_0_25">
<rect width="24" height="24" fill="white"/>
</clipPath>
</defs>
</svg>
